<?xml version="1.0" standalone="no"?>
<!DOCTYPE svg PUBLIC "-//W3C//DTD SVG 20010904//EN"
 "http://www.w3.org/TR/2001/REC-SVG-20010904/DTD/svg10.dtd">
<svg version="1.0" xmlns="http://www.w3.org/2000/svg"
 width="260.000000pt" height="260.000000pt" viewBox="0 0 260.000000 260.000000"
 preserveAspectRatio="xMidYMid meet">
<metadata>
Created by potrace 1.14, written by Peter Selinger 2001-2017
</metadata>
<g transform="translate(0.000000,260.000000) scale(0.100000,-0.100000)"
fill="#000000" stroke="none">
<path d="M510 2561 c0 -22 5 -43 10 -46 6 -3 10 -14 10 -24 0 -9 7 -26 15 -37
15 -18 16 -18 44 15 19 21 40 34 58 36 15 1 36 5 45 9 9 4 21 5 27 2 5 -4 12
-2 16 4 14 23 22 6 35 -70 14 -80 24 -94 52 -67 7 6 21 12 31 12 9 0 17 4 17
8 -1 15 45 46 51 35 4 -7 9 -7 13 0 3 5 48 20 100 32 52 13 94 26 94 29 -3 12
13 51 21 51 5 0 6 11 3 25 l-4 25 -319 0 -319 0 0 -39z"/>
<path d="M1566 2524 c3 -55 1 -73 -8 -68 -6 4 -8 3 -4 -4 3 -6 16 -9 29 -6 12
2 32 -1 45 -8 20 -10 27 -8 60 24 38 38 47 41 97 39 25 -1 36 -11 68 -61 21
-33 43 -60 48 -60 33 0 117 124 121 177 1 7 7 14 15 17 7 3 13 10 13 16 0 6
-83 10 -244 10 l-244 0 4 -76z m21 -66 c-3 -8 -6 -5 -6 6 -1 11 2 17 5 13 3
-3 4 -12 1 -19z"/>
<path d="M2218 2584 c25 -17 25 -27 0 -122 -7 -29 -8 -46 -1 -50 5 -4 13 -22
16 -41 9 -42 -22 -92 -53 -84 -12 3 -42 -10 -81 -36 -34 -23 -65 -41 -71 -41
-12 0 1 -69 19 -99 10 -16 11 -21 2 -16 -9 6 -11 3 -6 -11 7 -18 6 -18 -9 1
-15 18 -16 18 -10 2 3 -10 6 -21 6 -23 0 -2 13 -4 29 -4 21 0 36 -8 51 -30 17
-24 25 -28 39 -21 28 15 58 2 72 -30 11 -28 14 -29 61 -25 27 3 55 9 61 14 7
5 26 13 44 16 17 4 34 14 37 22 3 9 20 14 47 14 34 0 40 -3 35 -16 -4 -11 -2
-15 8 -11 9 4 25 -6 40 -23 14 -17 29 -30 35 -30 8 0 11 103 11 330 l0 330
-202 0 c-188 0 -201 -1 -180 -16z"/>
<path d="M1386 2464 c-21 -21 -12 -34 24 -34 17 0 33 -7 39 -17 10 -17 10 -16
11 2 0 14 3 16 8 7 6 -9 16 -10 40 -1 35 12 36 13 23 38 -13 24 -122 28 -145
5z"/>
<path d="M1033 2440 c-69 -20 -83 -27 -83 -41 0 -11 27 -12 32 -1 5 10 76 42
96 42 9 0 24 5 32 10 24 15 -4 12 -77 -10z"/>
<path d="M1223 2423 c9 -2 25 -2 35 0 9 3 1 5 -18 5 -19 0 -27 -2 -17 -5z"/>
<path d="M1120 2416 c0 -8 48 -12 66 -6 13 5 5 8 -23 8 -24 0 -43 -1 -43 -2z"/>
<path d="M1408 2413 c7 -3 16 -2 19 1 4 3 -2 6 -13 5 -11 0 -14 -3 -6 -6z"/>
<path d="M1627 2413 c-8 -8 16 -30 38 -34 11 -3 19 -13 20 -27 l2 -22 -23 21
c-14 13 -30 19 -39 15 -9 -3 -14 -2 -11 3 7 11 -57 19 -158 20 -65 1 -76 -1
-67 -13 9 -11 6 -13 -19 -10 -30 4 -30 4 -14 -21 18 -28 12 -44 -9 -27 -8 7
-17 9 -21 5 -4 -4 -4 0 0 10 3 10 1 17 -6 17 -6 0 -8 5 -5 10 3 6 1 10 -4 10
-6 0 -11 5 -11 10 0 6 7 10 15 10 8 0 15 3 15 8 0 4 -25 8 -56 10 -40 2 -54 0
-49 -8 4 -7 20 -10 36 -8 27 4 29 3 26 -29 -2 -32 -3 -33 -47 -33 -60 0 -96
10 -78 21 20 13 -18 11 -75 -5 l-49 -12 24 -22 c13 -12 34 -31 47 -42 13 -11
20 -20 16 -20 -4 0 -29 17 -54 38 -25 20 -53 37 -62 38 -29 2 -51 13 -44 24 7
12 -17 12 -67 1 -28 -7 -38 -5 -42 5 -3 8 1 14 9 14 22 0 68 20 62 27 -10 9
-98 -27 -92 -38 4 -5 -1 -6 -9 -3 -19 7 -82 -34 -126 -82 -19 -22 -52 -53 -73
-70 -35 -29 -48 -56 -51 -110 0 -11 -6 -27 -12 -35 -6 -8 -26 -43 -43 -78 -33
-68 -40 -107 -17 -98 10 4 15 -8 20 -48 3 -29 3 -60 0 -68 -8 -23 15 -134 36
-170 10 -17 21 -52 25 -77 10 -67 27 -112 37 -97 6 9 10 9 18 -3 13 -20 13
-53 0 -45 -15 10 -12 -28 6 -64 16 -31 15 -34 -5 -61 -11 -16 -28 -50 -37 -75
-14 -43 -14 -48 2 -66 21 -23 34 -16 34 19 1 15 9 43 20 62 l19 35 1 -27 c0
-16 5 -28 10 -28 6 0 10 8 10 19 0 25 20 81 29 81 4 0 9 -21 9 -47 6 -142 83
-213 232 -213 86 0 144 21 178 65 12 15 22 23 22 18 0 -14 -49 -62 -80 -78
-14 -7 -44 -17 -65 -21 -22 -4 -33 -9 -25 -12 8 -3 21 -11 28 -19 18 -18 58
-17 66 2 3 8 13 15 22 15 10 0 14 5 10 15 -3 8 -1 14 3 12 17 -4 71 66 71 94
0 14 7 46 15 69 8 23 15 54 15 67 0 14 13 37 29 54 27 27 26 47 -2 36 -7 -3
-18 6 -24 19 -10 21 -9 24 8 24 49 0 -3 38 -106 77 -43 16 -265 27 -265 12 0
-4 -10 -10 -22 -12 -19 -3 -17 -5 7 -7 22 -1 12 -6 -35 -15 -63 -13 -117 -18
-94 -9 8 4 8 15 -1 42 -14 41 -9 100 12 120 7 7 13 18 13 23 0 5 6 9 13 9 18
0 67 55 67 75 0 9 12 21 28 28 15 6 36 20 46 29 11 10 27 18 37 18 9 0 34 16
55 35 23 21 46 33 56 31 10 -2 21 0 24 5 3 5 10 7 15 4 5 -4 9 1 9 9 0 9 5 17
10 17 19 3 25 5 56 21 61 33 356 75 395 57 9 -5 21 -3 27 3 6 6 16 7 24 2 7
-5 23 -7 34 -6 26 4 88 -48 111 -92 16 -32 43 -145 43 -184 0 -12 12 -41 27
-63 22 -33 27 -53 28 -100 l0 -59 35 -6 c19 -3 44 -7 54 -9 11 -2 30 5 43 15
13 10 30 17 36 14 9 -3 11 15 9 68 -2 52 0 69 7 58 8 -11 11 -6 11 23 0 22 4
36 10 32 12 -7 24 39 16 60 -3 9 0 15 9 15 14 0 12 13 -10 75 -6 16 -5 17 4 5
9 -12 11 -10 11 10 -1 14 -7 34 -15 44 -8 11 -15 31 -15 45 0 32 -32 86 -59
101 -25 13 -27 38 -6 46 12 5 13 10 4 20 -6 8 -8 14 -4 14 4 0 -7 17 -23 38
-16 20 -37 51 -46 69 -9 17 -21 35 -27 39 -7 4 -6 -3 2 -17 7 -13 14 -33 16
-44 2 -18 1 -18 -17 4 l-20 23 0 -26 c0 -34 -16 -25 -25 13 -7 35 -69 124 -78
114 -4 -3 -7 0 -7 8 0 8 -11 27 -25 43 -13 16 -22 33 -19 38 3 4 2 7 -3 6 -4
-1 -27 8 -49 20 -23 11 -44 19 -47 15z m-69 -68 c6 -5 -35 -9 -82 -7 l-29 1
24 -26 c13 -14 18 -23 12 -19 -17 9 -53 18 -75 18 -10 -1 -22 8 -28 18 -9 16
-6 19 22 23 42 5 149 0 156 -8z m-315 -76 c12 -12 16 -19 9 -15 -6 4 -24 14
-40 22 -19 10 -22 14 -9 14 10 0 28 -10 40 -21z m97 -4 c0 -8 -2 -15 -4 -15
-2 0 -6 7 -10 15 -3 8 -1 15 4 15 6 0 10 -7 10 -15z m44 -1 c9 -3 16 -10 16
-14 0 -10 -38 -1 -46 11 -6 10 7 12 30 3z m136 -41 c0 -8 -38 17 -51 33 -9 11
-2 9 19 -6 17 -13 32 -25 32 -27z m-276 2 c39 -6 39 -7 15 -19 -20 -11 -26
-11 -36 2 -7 9 -16 13 -19 9 -8 -7 -64 23 -64 35 0 4 15 1 33 -7 17 -7 50 -17
71 -20z m-216 18 c-10 -2 -28 -2 -40 0 -13 2 -5 4 17 4 22 1 32 -1 23 -4z
m876 -158 c3 -8 1 -15 -4 -15 -6 0 -10 7 -10 15 0 8 2 15 4 15 2 0 6 -7 10
-15z m-989 -675 c3 -6 -4 -10 -17 -10 -18 0 -20 2 -8 10 19 12 18 12 25 0z
m315 -99 c0 -5 -7 -12 -16 -15 -14 -5 -15 -4 -4 9 14 17 20 19 20 6z m-23 -93
c-2 -13 -4 -3 -4 22 0 25 2 35 4 23 2 -13 2 -33 0 -45z m-26 -101 c-10 -9 -11
-8 -5 6 3 10 9 15 12 12 3 -3 0 -11 -7 -18z"/>
<path d="M1198 2353 c12 -2 30 -2 40 0 9 3 -1 5 -23 4 -22 0 -30 -2 -17 -4z"/>
<path d="M1900 2335 c0 -8 9 -19 20 -25 24 -13 27 2 4 24 -19 20 -24 20 -24 1z"/>
<path d="M1830 2256 c0 -2 8 -10 18 -17 15 -13 16 -12 3 4 -13 16 -21 21 -21
13z"/>
<path d="M1940 2225 c7 -8 9 -15 4 -15 -4 0 -3 -5 3 -11 6 -6 16 -8 22 -5 14
9 -8 46 -28 46 -11 0 -11 -3 -1 -15z"/>
<path d="M1470 1468 c0 -10 -6 -18 -13 -18 -18 0 -67 -24 -67 -32 0 -5 -6 -8
-14 -8 -8 0 -17 -7 -20 -16 -9 -22 -8 -24 12 -25 14 0 14 -2 -3 -9 -11 -5 -14
-9 -7 -9 20 -1 13 -21 -8 -21 -21 0 -27 -19 -11 -35 16 -16 79 -200 90 -262
14 -73 26 -86 69 -74 18 6 30 6 27 1 -10 -16 12 -20 25 -5 7 9 8 15 2 15 -5 0
-12 9 -15 19 -3 15 -1 18 12 15 9 -3 3 2 -14 12 -36 20 -83 62 -97 87 -5 10 8
1 30 -21 67 -67 182 -80 289 -32 66 29 99 82 104 165 l2 40 10 -37 c6 -21 14
-38 18 -38 4 0 13 26 19 58 7 31 17 73 24 92 8 23 9 44 3 61 -8 22 -19 27 -81
38 -39 7 -111 15 -161 18 -49 3 -94 9 -100 13 -5 5 -32 6 -59 4 -34 -3 -52 -1
-57 8 -7 10 -9 9 -9 -4z m-66 -227 c2 -48 0 -56 -8 -39 -10 20 -9 115 1 105 2
-3 6 -32 7 -66z"/>
<path d="M1999 1384 c-10 -13 -11 -18 -2 -21 7 -3 22 -36 34 -75 19 -59 24
-68 32 -51 5 13 4 45 -5 89 -14 73 -32 90 -59 58z"/>
<path d="M545 1368 c-10 -31 -11 -126 -2 -158 10 -34 10 -34 18 -10 4 14 7 42
8 62 1 48 10 68 29 68 12 0 10 6 -8 25 -26 28 -39 31 -45 13z"/>
<path d="M1290 1350 c0 -5 7 -7 15 -4 8 4 15 8 15 10 0 2 -7 4 -15 4 -8 0 -15
-4 -15 -10z"/>
<path d="M95 1328 c-28 -16 -35 -28 -35 -69 0 -22 -11 -53 -30 -82 l-30 -48 0
-386 c0 -212 3 -383 7 -380 3 4 18 -1 32 -10 52 -35 212 -14 228 30 4 12 8 70
8 129 0 127 15 157 83 172 83 18 129 -61 99 -169 -8 -27 -20 -71 -28 -97 l-13
-48 39 -40 c21 -22 45 -40 52 -40 15 0 247 76 269 88 8 4 29 30 48 57 l33 49
-28 61 c-15 33 -38 111 -49 174 -22 114 -49 197 -57 174 -10 -27 -54 -13 -94
30 -29 31 -45 60 -59 112 -12 39 -25 84 -31 100 -16 45 -28 106 -29 147 0 29
-3 36 -15 32 -11 -5 -15 -23 -15 -74 0 -68 -5 -97 -38 -246 -21 -96 -35 -120
-90 -158 l-41 -28 -51 17 c-29 10 -57 27 -66 40 -21 32 -36 204 -31 343 5 113
5 113 -20 123 -29 11 -23 11 -48 -3z"/>
<path d="M1924 1236 c-3 -14 2 -36 15 -57 12 -19 21 -43 22 -54 0 -15 4 -12
15 12 10 25 11 39 2 65 -20 60 -43 75 -54 34z"/>
<path d="M2006 1006 c-38 -88 -60 -116 -96 -116 -16 0 -30 6 -33 13 -24 67
-45 -199 -25 -330 2 -20 63 -43 112 -43 60 0 75 23 88 135 5 47 20 119 33 159
23 72 24 105 1 136 -20 27 -39 64 -45 89 -6 21 -10 15 -35 -43z"/>
<path d="M666 1001 c-4 -5 3 -15 15 -21 18 -10 20 -9 17 6 -4 20 -23 30 -32
15z"/>
<path d="M1153 875 c-6 -18 24 -63 48 -70 10 -4 19 -14 19 -23 0 -9 10 -30 23
-46 22 -27 25 -28 60 -17 20 7 36 15 35 19 -4 16 38 71 58 76 11 3 26 17 34
31 19 35 3 49 -41 37 -29 -7 -134 -9 -134 -2 0 1 -22 4 -48 5 -33 2 -50 -2
-54 -10z"/>
<path d="M897 746 c-16 -13 -16 -16 2 -75 10 -33 15 -61 10 -61 -5 0 -1 -9 8
-20 9 -11 19 -32 21 -47 2 -15 6 -32 10 -38 4 -5 7 -17 6 -25 -1 -8 -2 -24 -3
-35 -1 -12 -4 -16 -9 -9 -4 6 -15 13 -24 17 -10 3 -18 13 -18 20 0 8 -7 14
-15 14 -14 0 -13 -3 0 -21 9 -12 22 -34 29 -50 7 -16 15 -23 17 -17 5 13 71
-54 102 -101 9 -15 26 -32 38 -38 18 -10 19 -10 10 7 -5 10 -28 40 -50 68 -43
54 -45 73 -3 51 61 -31 81 -38 96 -33 11 4 16 1 16 -12 0 -18 30 -52 30 -35 0
5 5 2 10 -6 7 -11 10 -7 10 17 0 47 21 53 143 47 68 -3 107 -1 112 6 3 5 15
10 26 10 10 0 19 5 19 10 0 6 8 10 19 10 20 0 36 36 20 46 -5 3 -9 0 -9 -6 0
-7 -6 -8 -19 -1 -10 6 -21 8 -23 5 -7 -7 -58 17 -58 27 0 5 -29 5 -65 2 -53
-5 -65 -3 -63 8 3 12 -27 27 -114 56 -10 3 -18 9 -18 14 0 5 -7 9 -15 9 -8 0
-15 4 -15 9 0 10 27 9 119 -4 38 -5 72 -2 122 11 38 10 71 15 75 12 9 -10 -46
-78 -65 -79 -9 0 -11 -3 -5 -5 17 -7 77 22 103 50 14 14 20 26 16 26 -5 0 -1
6 10 13 24 16 85 21 85 7 0 -5 5 -10 10 -10 11 0 13 30 4 54 -3 9 -11 13 -18
9 -20 -13 -40 -15 -116 -13 -41 1 -91 2 -110 2 -19 -1 -51 -1 -70 -1 -49 2
-56 1 -141 -7 -69 -6 -77 -5 -95 14 -22 23 -60 23 -77 0 -6 -9 -7 -4 -3 12 4
14 9 39 12 55 5 29 5 29 -11 10 -10 -11 -23 -33 -30 -49 l-13 -29 -10 48 c-6
27 -8 53 -6 57 7 11 2 9 -19 -6z m227 -198 c28 -24 63 -51 76 -60 l25 -18 -27
10 c-16 5 -28 6 -28 1 0 -20 -88 -34 -141 -22 -24 5 -34 95 -13 115 25 26 52
19 108 -26z m351 32 c3 -5 1 -10 -4 -10 -6 0 -11 5 -11 10 0 6 2 10 4 10 3 0
8 -4 11 -10z"/>
<path d="M1627 666 c1 -33 2 -63 3 -65 0 -3 7 4 15 15 19 26 19 53 -3 85 l-17
27 2 -62z"/>
<path d="M898 523 c7 -3 16 -2 19 1 4 3 -2 6 -13 5 -11 0 -14 -3 -6 -6z"/>
<path d="M1614 495 c-27 -28 -35 -61 -18 -76 11 -9 14 -8 14 5 0 9 4 16 9 16
8 0 51 64 51 75 0 12 -38 -2 -56 -20z"/>
<path d="M1655 424 c-38 -42 -77 -84 -86 -93 -36 -38 -93 -114 -79 -106 27 15
95 70 99 79 2 5 11 16 20 25 27 28 127 171 119 171 -2 0 -34 -34 -73 -76z"/>
<path d="M1920 465 c-10 -13 -9 -15 12 -15 14 0 51 -9 84 -20 32 -12 90 -29
129 -39 68 -18 93 -36 58 -43 -10 -2 -81 18 -158 44 -77 26 -141 48 -143 48
-2 0 -2 -17 0 -37 l3 -38 130 -41 c151 -49 175 -52 182 -24 6 23 23 27 23 5 0
-8 5 -15 10 -15 18 0 10 29 -10 35 -15 5 -18 12 -14 34 6 27 5 27 -138 74 -80
26 -147 47 -150 47 -3 0 -11 -7 -18 -15z"/>
<path d="M806 351 c-35 -69 -136 -326 -136 -348 0 -2 34 -3 75 -3 60 0 75 3
75 15 0 8 5 15 10 15 6 0 10 -7 10 -15 0 -13 19 -15 117 -13 132 3 142 10 98
62 -22 27 -30 18 -12 -11 6 -10 2 -11 -17 -3 -14 5 -33 7 -43 3 -12 -5 -14 -3
-8 8 5 8 5 11 -1 6 -5 -5 -10 -13 -10 -18 -1 -5 -2 -12 -3 -16 0 -4 -10 3 -21
14 -24 26 -35 72 -56 238 -9 72 -20 136 -24 144 -4 8 -23 -18 -54 -78z"/>
<path d="M1834 409 c3 -15 6 -65 7 -111 1 -92 12 -131 23 -82 11 50 -3 187
-21 204 -14 14 -15 12 -9 -11z"/>
<path d="M2255 403 c2 -10 4 -20 4 -23 1 -3 9 -6 19 -6 59 -3 197 -29 255 -49
53 -18 67 -20 67 -9 0 9 -11 14 -28 14 -15 0 -60 16 -100 35 -40 19 -101 39
-135 45 -82 13 -86 13 -82 -7z"/>
<path d="M1782 374 c-5 -91 -115 -289 -165 -296 -32 -4 -87 -2 -87 3 0 4 -13
9 -30 12 -21 5 -28 11 -24 22 4 9 0 15 -9 15 -12 0 -13 7 -7 35 6 25 5 33 -4
28 -18 -12 -103 -9 -114 4 -8 8 -7 13 3 17 26 10 16 26 -16 26 -16 0 -28 4
-24 9 3 5 1 12 -5 16 -7 4 -7 12 0 25 11 21 -13 50 -25 30 -3 -6 -11 -8 -16
-4 -16 9 -59 -5 -59 -20 0 -7 7 -19 15 -26 8 -7 15 -16 15 -21 0 -13 -31 -40
-40 -34 -5 3 -19 0 -30 -7 -17 -11 -22 -11 -30 2 -6 9 -10 10 -10 3 0 -7 15
-29 33 -49 26 -30 32 -46 33 -84 0 -41 -2 -47 -18 -42 -28 7 -21 -11 9 -25 19
-9 91 -13 243 -13 l216 0 22 43 c12 23 37 70 57 105 46 83 77 176 72 221 -3
34 -4 34 -5 5z"/>
<path d="M1220 350 c0 -9 39 -25 46 -18 2 3 -7 10 -21 16 -14 6 -25 7 -25 2z"/>
<path d="M1910 339 c1 -17 33 -105 51 -140 15 -31 24 -68 27 -121 l5 -78 47 0
48 0 23 55 c13 31 28 54 34 52 6 -3 28 -1 50 3 l40 8 -47 1 c-51 1 -59 11 -34
46 7 11 15 24 17 30 2 5 12 8 22 7 9 -2 17 1 17 7 0 5 -8 11 -17 13 -14 3 -12
8 12 21 19 11 22 16 9 12 -16 -4 -204 49 -290 82 -8 3 -14 4 -14 2z"/>
<path d="M2358 113 c7 -3 16 -2 19 1 4 3 -2 6 -13 5 -11 0 -14 -3 -6 -6z"/>
<path d="M558 83 c7 -3 16 -2 19 1 4 3 -2 6 -13 5 -11 0 -14 -3 -6 -6z"/>
<path d="M70 55 c-19 -14 -42 -25 -52 -25 -10 0 -18 -7 -18 -15 0 -21 5 -20
67 25 31 22 52 40 47 40 -6 0 -25 -11 -44 -25z"/>
<path d="M483 73 c9 -2 25 -2 35 0 9 3 1 5 -18 5 -19 0 -27 -2 -17 -5z"/>
<path d="M490 30 c20 -13 33 -13 25 0 -3 6 -14 10 -23 10 -15 0 -15 -2 -2 -10z"/>
</g>
</svg>
